<svg width="800" height="800" viewBox="0 0 800 800" fill="none" xmlns="http://www.w3.org/2000/svg">
<g clip-path="url(#clip0_1_41)">
<mask id="mask0_1_41" style="mask-type:luminance" maskUnits="userSpaceOnUse" x="0" y="0" width="800" height="800">
<path d="M800 0H0V800H800V0Z" fill="white"/>
</mask>
<g mask="url(#mask0_1_41)">
<path d="M400 800C620.914 800 800 620.914 800 400C800 179.086 620.914 0 400 0C179.086 0 0 179.086 0 400C0 620.914 179.086 800 400 800Z" fill="#FFD23F"/>
<path d="M363.302 0.757315C241.144 12.9258 133.162 77.3886 66.8048 177.653C31.5147 230.852 11.5069 284.554 2.25702 350.626C0.145646 366.214 -0.759229 415.391 0.748897 433.191C11.5069 555.982 76.4568 666.001 177.803 733.179C230.989 768.478 284.679 788.49 350.735 797.742C366.319 799.854 415.483 800.759 433.279 799.251C556.041 788.49 666.033 723.525 733.195 622.154C768.485 568.955 788.493 515.253 797.743 449.181C799.854 433.593 800.759 384.416 799.251 366.616C788.493 243.825 723.543 133.806 622.197 66.628C569.011 31.3294 515.623 11.4173 449.265 2.06467C435.692 0.15392 377.881 -0.751174 363.302 0.757315ZM239.234 128.778C267.888 136.32 301.771 154.623 329.922 177.452C333.642 180.469 336.96 182.782 337.161 182.48C337.363 182.279 335.553 179.765 333.14 176.949C328.012 171.015 327.711 171.317 339.675 169.004C352.142 166.591 371.647 164.579 384.014 164.579C396.582 164.579 418.5 166.591 431.671 169.004C436.094 169.809 441.323 170.814 443.233 171.116C454.695 173.228 479.73 179.966 494.006 184.894C513.411 191.531 537.541 203.498 551.717 213.655C569.513 226.327 579.065 237.691 590.325 259.614C595.755 270.274 597.665 272.788 606.111 281.336C611.339 286.666 620.186 294.309 625.716 298.433C635.067 305.472 641.602 309.998 667.944 327.999C698.709 348.917 713.087 361.789 719.019 373.656C724.649 384.819 724.649 384.819 712.986 384.819C704.842 384.819 685.84 383.008 664.927 380.092C660.101 379.489 658.593 380.796 657.688 386.227C656.683 392.663 658.694 395.278 670.357 402.619C676.188 406.44 682.422 410.765 684.231 412.374C687.449 415.089 687.549 415.391 687.549 423.134C687.549 433.09 684.332 447.572 680.31 456.22C675.987 465.271 665.43 475.63 655.376 480.557C634.664 490.815 606.01 494.637 578.964 490.916C567.704 489.307 564.084 488.603 542.669 483.373C528.291 479.853 525.174 479.853 521.655 483.373C508.686 496.346 560.263 511.431 604.2 507.61C619.885 506.202 629.235 504.693 640.395 501.475C655.175 497.251 656.18 497.05 658.895 498.257C666.536 501.777 667.24 513.342 661.006 530.539C656.784 542.204 645.824 555.177 634.865 561.714C612.143 575.291 573.133 573.48 541.563 557.39C536.837 554.976 526.381 548.741 518.438 543.612C499.536 531.343 496.319 529.533 481.439 522.091C455.298 509.018 432.877 501.274 406.033 496.045C359.783 486.994 356.868 486.29 338.066 479.552C316.249 471.708 298.051 461.752 280.657 448.276C250.293 424.643 236.921 399.2 229.079 350.123C227.973 343.486 227.068 335.24 227.068 331.82C227.068 321.362 225.158 323.172 220.734 338.055C214.802 357.666 212.791 386.428 216.31 403.423C221.639 429.973 235.916 452.399 261.252 473.82C284.075 493.028 304.284 503.788 337.966 514.448C351.137 518.672 378.585 525.611 381.902 525.611C383.008 525.611 383.913 525.913 383.913 526.214C383.913 526.617 380.797 530.136 377.077 534.059C356.264 555.982 341.384 591.582 333.14 638.647C331.632 647.396 329.822 660.571 327.509 678.974C326.906 684.505 326.102 689.533 325.7 690.137C324.996 691.444 260.448 643.273 238.53 625.171C179.21 576.095 134.771 526.918 106.117 478.747C100.084 468.691 90.5326 448.175 87.818 439.527L85.2039 431.481L88.4213 421.928C96.6657 397.792 114.361 360.985 129.04 337.553C145.529 311.406 165.235 285.962 184.841 265.749L195.498 254.887L205.955 260.016C212.088 262.933 218.623 265.346 221.538 265.749C224.856 266.151 226.264 266.05 225.56 265.447C225.057 264.844 219.125 259.614 212.389 253.781C205.753 248.049 198.112 240.406 195.498 236.886C180.216 216.471 169.257 174.837 174.183 155.528C177.903 141.248 188.058 130.588 201.832 126.666C208.971 124.655 227.772 125.66 239.234 128.778ZM720.728 432.587C719.22 441.538 714.595 452.902 709.065 461.349C702.631 471.104 683.829 488.402 679.606 488.402C677.998 488.402 679.707 484.077 683.226 479.552C689.359 471.507 695.593 454.109 695.593 445.259C695.593 442.141 696.598 440.633 702.429 434.599C706.149 430.677 711.88 424.14 715.198 420.017L721.231 412.474L721.532 419.011C721.733 422.631 721.331 428.665 720.728 432.587Z" fill="#008B4C"/>
<path d="M211.485 166.292C203.643 168.303 199.822 182.986 203.341 197.769C207.765 216.172 223.148 239.101 237.928 249.258L242.15 252.175L244.865 248.856C250.897 241.615 260.147 232.464 267.286 226.732C271.408 223.312 275.027 220.195 275.128 219.793C275.731 218.385 269.498 207.926 264.169 201.188C254.819 189.422 237.928 175.141 226.064 169.107C221.238 166.694 214.803 165.487 211.485 166.292Z" fill="#008B4C"/>
<path d="M491.495 265.242C474.202 266.65 456.104 272.483 455.501 276.908C455.099 279.522 457.21 280.83 464.55 282.338C480.234 285.556 481.843 286.461 488.479 296.216C496.019 307.278 506.174 311.905 523.97 312.307C535.029 312.508 534.929 312.508 558.657 320.05C563.08 321.458 563.784 321.157 561.572 318.542C560.768 317.637 555.741 309.692 550.312 300.842C539.152 282.74 532.214 274.796 523.869 270.471C513.815 265.242 506.677 264.035 491.495 265.242Z" fill="#008B4C"/>
</g>
<path d="M503.073 667.236L504 666.764H502.854L502.5 666L502.145 666.764H501L501.927 667.236L501.573 668L502.5 667.528L503.427 668L503.073 667.236Z" fill="white"/>
<path d="M554 651C554 657.054 553.378 662.966 552.218 668.68C551.397 672.668 550.322 676.571 548.993 680.334C548.286 682.314 547.522 684.265 546.673 686.189C544.043 692.214 540.762 697.871 536.943 703.076C536.688 703.415 536.462 703.727 536.236 704.037C534.765 705.989 533.209 707.856 531.597 709.667C531.568 709.667 531.568 709.695 531.568 709.695C531.286 710.006 530.975 710.345 530.663 710.685C524.186 717.7 516.548 723.668 508.091 728.307C495.587 735.125 481.246 739 466 739C450.753 739 436.412 735.125 423.909 728.307C419.015 725.621 414.404 722.509 410.162 719.001C408.125 717.36 406.201 715.607 404.335 713.796C403.316 712.778 402.298 711.731 401.308 710.685C401.025 710.345 400.714 710.006 400.431 709.695C400.403 709.695 400.403 709.667 400.403 709.667C398.79 707.856 397.235 705.989 395.764 704.037C395.538 703.727 395.283 703.415 395.057 703.076C391.21 697.871 387.929 692.214 385.298 686.189C384.478 684.265 383.714 682.313 383.007 680.334C381.677 676.571 380.574 672.668 379.754 668.68C378.594 662.966 378 657.054 378 651C378 645.569 378.481 640.251 379.443 635.103C379.528 634.509 379.641 633.915 379.754 633.321C380.574 629.332 381.677 625.429 383.007 621.667V621.639C383.714 619.659 384.478 617.707 385.298 615.783H385.326C387.957 609.787 391.21 604.129 395.057 598.896C395.283 598.585 395.537 598.273 395.764 597.963C397.235 596.01 398.79 594.116 400.403 592.305H400.431C400.714 591.966 401.025 591.626 401.308 591.315C402.298 590.24 403.316 589.194 404.335 588.203C406.201 586.365 408.125 584.639 410.162 582.971C414.405 579.463 419.015 576.351 423.909 573.693C435.648 567.3 449.027 563.481 463.228 563.057C464.161 563.029 465.066 563 466 563C481.246 563 495.588 566.875 508.091 573.693C516.548 578.303 524.186 584.272 530.663 591.315C530.975 591.626 531.286 591.966 531.568 592.305H531.597C533.209 594.116 534.765 596.01 536.236 597.963C536.462 598.273 536.688 598.585 536.943 598.896C540.762 604.129 544.043 609.786 546.673 615.783C547.522 617.706 548.286 619.659 548.993 621.639V621.667C550.322 625.429 551.397 629.332 552.218 633.321C553.378 639.034 554 644.947 554 651Z" fill="#129D49"/>
<path d="M548 651.052C548 656.223 547.536 661.393 546.558 666.512L465.474 719L384.391 666.512C383.412 661.445 383 656.275 383 651.052C383 645.882 383.464 640.816 384.391 635.698C384.391 635.645 384.391 635.541 384.443 635.488L465.474 583L546.558 635.488C547.537 640.607 548 645.83 548 651.052Z" fill="#FBD800"/>
<path d="M511 651C511 653.056 510.862 655.081 510.594 657.063C510.584 657.143 510.574 657.223 510.562 657.303C510.22 659.747 509.681 662.127 508.962 664.428C508.94 664.5 508.917 664.572 508.894 664.643C503.116 682.827 486.096 696 466 696C441.147 696 421 675.853 421 651C421 647.171 421.478 643.454 422.378 639.905C422.396 639.832 422.415 639.759 422.434 639.687C423.05 637.308 423.855 635.007 424.834 632.798C424.867 632.724 424.9 632.65 424.933 632.577C431.971 616.91 447.712 606 466 606C490.853 606 511 626.147 511 651Z" fill="#233A75"/>
<path d="M510 657.222C509.99 657.304 509.979 657.386 509.968 657.469C509.626 659.976 509.089 662.418 508.372 664.779C508.349 664.853 508.327 664.927 508.304 665L508.235 664.936C489.433 647.578 465.152 638.019 439.864 638.019C433.898 638.019 427.919 638.55 422.091 639.6L422 639.616C422.018 639.541 422.037 639.466 422.055 639.392C422.67 636.951 423.473 634.59 424.449 632.324C424.482 632.248 424.515 632.172 424.548 632.096C429.588 631.369 434.739 631 439.863 631C452.944 631 465.739 633.354 477.89 637.997C489.59 642.468 500.393 648.935 509.999 657.222L510 657.222Z" fill="white"/>
<path d="M481.073 635.854L482 635.146H480.854L480.5 634L480.146 635.146H479L479.927 635.854L479.573 637L480.5 636.292L481.427 637L481.073 635.854Z" fill="white"/>
<path d="M429.764 642.854L431 642.146H429.472L429 641L428.528 642.146H427L428.236 642.854L427.764 644L429 643.292L430.236 644L429.764 642.854Z" fill="white"/>
<path d="M434.073 662.472L435 661.528H433.854L433.5 660L433.146 661.528H432L432.927 662.472L432.573 664L433.5 663.056L434.427 664L434.073 662.472Z" fill="white"/>
<path d="M428.073 666.236L429 665.764H427.854L427.5 665L427.146 665.764H426L426.927 666.236L426.573 667L427.5 666.528L428.427 667L428.073 666.236Z" fill="white"/>
<path d="M438.382 659.618L439 659.382H438.236L438 659L437.764 659.382H437L437.618 659.618L437.382 660L438 659.764L438.618 660L438.382 659.618Z" fill="white"/>
<path d="M443.073 666.236L444 665.764H442.854L442.5 665L442.146 665.764H441L441.927 666.236L441.573 667L442.5 666.528L443.427 667L443.073 666.236Z" fill="white"/>
<path d="M449.073 653.236L450 652.764H448.854L448.5 652L448.146 652.764H447L447.927 653.236L447.573 654L448.5 653.528L449.427 654L449.073 653.236Z" fill="white"/>
<path d="M466.073 658.472L467 657.528H465.854L465.5 656L465.146 657.528H464L464.927 658.472L464.573 660L465.5 659.056L466.427 660L466.073 658.472Z" fill="white"/>
<path d="M471.764 662.854L473 662.146H471.472L471 661L470.528 662.146H469L470.236 662.854L469.764 664L471 663.292L472.236 664L471.764 662.854Z" fill="white"/>
<path d="M466.764 671.854L468 671.146H466.472L466 670L465.528 671.146H464L465.236 671.854L464.764 673L466 672.292L467.236 673L466.764 671.854Z" fill="white"/>
<path d="M461.073 662.854L462 662.146H460.854L460.5 661L460.146 662.146H459L459.927 662.854L459.573 664L460.5 663.291L461.427 664L461.073 662.854Z" fill="white"/>
<path d="M463.691 665.618L464 665.382H463.618L463.5 665L463.382 665.382H463L463.309 665.618L463.191 666L463.5 665.764L463.809 666L463.691 665.618Z" fill="white"/>
<path d="M441.764 671.236L443 670.764H441.472L441 670L440.528 670.764H439L440.236 671.236L439.764 672L441 671.528L442.236 672L441.764 671.236Z" fill="white"/>
<path d="M448.764 675.472L450 674.527H448.472L448 673L447.528 674.527H446L447.236 675.472L446.764 677L448 676.056L449.236 677L448.764 675.472Z" fill="white"/>
<path d="M475.382 675.854L476 675.146H475.236L475 674L474.764 675.146H474L474.618 675.854L474.382 677L475 676.292L475.618 677L475.382 675.854Z" fill="white"/>
<path d="M482.382 677.236L483 676.764H482.236L482 676L481.764 676.764H481L481.618 677.236L481.382 678L482 677.528L482.618 678L482.382 677.236Z" fill="white"/>
<path d="M487.382 675.854L488 675.146H487.236L487 674L486.764 675.146H486L486.618 675.854L486.382 677L487 676.292L487.618 677L487.382 675.854Z" fill="white"/>
<path d="M492.382 677.236L493 676.764H492.236L492 676L491.764 676.764H491L491.618 677.236L491.382 678L492 677.528L492.618 678L492.382 677.236Z" fill="white"/>
<path d="M499.073 671.236L500 670.764H498.854L498.5 670L498.146 670.764H497L497.927 671.236L497.573 672L498.5 671.528L499.427 672L499.073 671.236Z" fill="white"/>
<path d="M497.455 666.854L499 666.146H497.09L496.5 665L495.909 666.146H494L495.544 666.854L494.955 668L496.5 667.292L498.044 668L497.455 666.854Z" fill="white"/>
<path d="M496.764 674.854L498 674.146H496.472L496 673L495.528 674.146H494L495.236 674.854L494.764 676L496 675.292L497.236 676L496.764 674.854Z" fill="white"/>
<path d="M487.382 685.236L488 684.764H487.236L487 684L486.764 684.764H486L486.618 685.236L486.382 686L487 685.528L487.618 686L487.382 685.236Z" fill="white"/>
<path d="M488.073 680.854L489 680.146H487.854L487.5 679L487.146 680.146H486L486.927 680.854L486.573 682L487.5 681.292L488.427 682L488.073 680.854Z" fill="white"/>
<path d="M479.073 681.472L480 680.528H478.854L478.5 679L478.146 680.528H477L477.927 681.472L477.573 683L478.5 682.056L479.427 683L479.073 681.472Z" fill="white"/>
<path d="M478.073 649.236L479 648.764H477.854L477.5 648L477.146 648.764H476L476.927 649.236L476.573 650L477.5 649.528L478.427 650L478.073 649.236Z" fill="white"/>
</g>
<defs>
<clipPath id="clip0_1_41">
<rect width="800" height="800" fill="white"/>
</clipPath>
</defs>
</svg>
