<?xml version="1.0" encoding="UTF-8"?><svg id="Layer_2" xmlns="http://www.w3.org/2000/svg" viewBox="0 0 1024 1024"><defs><style>.cls-1{fill:#fff;}.cls-2{fill:none;}</style></defs><g id="Layer_1-2"><rect width="1024" height="1024"/><polygon class="cls-1" points="563.933 670.81 564.026 670.81 563.979 670.856 563.933 670.81"/><path class="cls-1" d="M563.933,670.81l.046.046.046-.046h-.092Z"/><path class="cls-1" d="M459.033,205.628v274.538h-116.38l36.931,15.29c117.176,54.266,112.054,247.311-38.423,247.311h-177.554v-274.538h128.308c-1.695,0-28.734-6.748-35.115-9.572-9.771-4.325-22.951-9.553-32.597-16.706-101.605-70.412-77.161-236.323,63.245-236.323h171.586Z"/><path class="cls-1" d="M861.9,289.205v67.105c0,60.251-60.946,117.63-118.186,126.522-10.605,1.667-21.247,1.922-31.029,1.922v62.683c-30.241.694-60.066,8.66-86.556,23.063-10.513,5.743-20.516,12.457-29.732,20.099-4.353,3.52-8.568,7.317-12.55,11.254-2.223,2.176-4.4,4.446-6.53,6.715-.695.741-1.343,1.436-1.945,2.176h-.046c-3.473,3.937-6.854,8.012-10.049,12.18-.509.695-1.019,1.389-1.528,2.084-8.336,11.346-15.421,23.618-21.072,36.493v.046c-1.667,3.844-3.242,7.781-4.631,11.717-5.65-8.66-10.605-18.293-14.82-29.037-28.62-73.172-17.783-259.899-19.543-347.474-.648-30.334.695-60.806.093-91.14h208.91v83.647l4.492-.055h144.723Z"/><path class="cls-1" d="M860.084,719.094l-9.573-6.13c-.024-.144-.048-.276-.072-.42l-133.256-85.09-.108.072-133.063,85.018c-.06.06-.072.144-.072.228l-9.573,6.118c.312-2.423.695-4.811,1.139-7.186.144-.972.324-1.944.516-2.915,1.344-6.538,3.143-12.92,5.326-19.086v-.048c1.152-3.239,2.411-6.43,3.755-9.585h.036c4.307-9.813,9.633-19.074,15.931-27.64.372-.516.792-1.02,1.164-1.535,2.411-3.191,4.954-6.298,7.594-9.261h.048c.456-.552.971-1.116,1.439-1.619,1.62-1.763,3.287-3.479,4.954-5.098,3.047-3.011,6.203-5.83,9.537-8.566,6.946-5.746,14.492-10.833,22.505-15.187,19.218-10.473,41.123-16.723,64.372-17.419,1.524-.036,3.011-.084,4.534-.084,24.965,0,48.442,6.334,68.919,17.503,13.844,7.546,26.344,17.323,36.949,28.851.516.504,1.02,1.068,1.488,1.619h.048c2.639,2.963,5.182,6.07,7.594,9.261.372.516.744,1.02,1.152,1.535,6.262,8.566,11.624,17.827,15.931,27.64,1.392,3.155,2.639,6.346,3.803,9.585v.048c2.171,6.166,3.935,12.548,5.278,19.086.684,3.395,1.259,6.826,1.703,10.305Z"/><path class="cls-1" d="M789.065,737.724c0,2.411-.12,4.847-.36,7.246-15.295-12.152-32.27-21.726-50.541-28.515-20.598-7.654-42.275-11.529-64.445-11.529-7.03,0-14.084.396-21.042,1.2,12.033-24.532,37.093-40.248,64.54-40.248,39.613,0,71.846,32.222,71.846,71.846Z"/><path class="cls-1" d="M786.198,757.878c-.119.42-.252.852-.384,1.271l-.108.348c-9.513,29.943-37.045,50.073-68.488,50.073-39.611,0-71.846-32.234-71.846-71.846,0-5.998.744-11.96,2.207-17.731l.084-.336c.108-.42.228-.852.348-1.272,8.469-1.259,17.095-1.895,25.708-1.895,41.339,0,81.12,14.66,112.478,41.387Z"/><path class="cls-1" d="M860.119,756.114c-.456,3.563-1.032,7.078-1.739,10.557-1.344,6.538-3.107,12.92-5.278,19.086-1.164,3.239-2.412,6.43-3.803,9.585-4.307,9.861-9.669,19.122-15.931,27.652-.408.552-.78,1.056-1.152,1.571-2.412,3.191-4.954,6.25-7.594,9.213-.048,0-.048.048-.048.048-.468.504-.972,1.068-1.488,1.62-10.605,11.481-23.105,21.258-36.949,28.851-20.478,11.157-43.954,17.503-68.919,17.503s-48.441-6.346-68.906-17.503c-8.014-4.403-15.56-9.489-22.505-15.235-3.335-2.687-6.49-5.554-9.537-8.518-1.667-1.668-3.335-3.383-4.954-5.098-.468-.552-.983-1.116-1.439-1.62-.048,0-.048-.048-.048-.048-2.639-2.963-5.183-6.022-7.594-9.213-.372-.516-.792-1.02-1.164-1.571-6.298-8.53-11.66-17.791-15.967-27.652-1.344-3.155-2.603-6.346-3.755-9.585-2.183-6.166-3.983-12.548-5.326-19.086-.696-3.419-1.26-6.874-1.703-10.365l9.525,6.094c.024.144.06.288.084.432l133.028,84.934.228.144,133.256-85.078c.036-.192.072-.396.108-.588l9.573-6.13Z"/><polygon class="cls-2" points="716.955 847.767 717.075 847.694 717.183 847.767 716.955 847.767"/><polygon class="cls-2" points="717.183 627.454 717.075 627.525 716.955 627.454 717.183 627.454"/></g></svg>