<?xml version="1.0" encoding="UTF-8"?><svg id="Layer_2" xmlns="http://www.w3.org/2000/svg" viewBox="0 0 1024 1024"><defs><style>.cls-1{fill:#fff;}.cls-2{fill:#306c40;}.cls-3{fill:#129d49;}.cls-4{fill:#fbd800;}.cls-5{fill:#233a75;}.cls-6{fill:#ffd23f;}</style></defs><g id="Layer_1-2"><rect class="cls-6" width="1024" height="1024"/><polygon class="cls-1" points="778.794 764.518 780.031 763.619 778.502 763.619 778.03 762.165 777.557 763.619 776.029 763.619 777.265 764.518 776.793 765.972 778.03 765.073 779.267 765.972 778.794 764.518"/><polygon class="cls-1" points="563.933 670.808 564.026 670.808 563.979 670.854 563.933 670.808"/><path class="cls-3" d="M861.298,737.728c0,9.911-1.019,19.59-2.918,28.945-1.343,6.53-3.103,12.92-5.279,19.08-1.158,3.242-2.408,6.437-3.798,9.586-4.307,9.864-9.679,19.127-15.931,27.648-.417.555-.787,1.065-1.158,1.574-2.408,3.195-4.955,6.252-7.595,9.216-.046,0-.046.046-.046.046-.463.509-.972,1.065-1.482,1.621-10.605,11.485-23.109,21.257-36.956,28.852-20.47,11.161-43.949,17.506-68.911,17.506s-48.441-6.345-68.911-17.506c-8.012-4.399-15.561-9.494-22.507-15.237-3.334-2.686-6.484-5.557-9.54-8.521-1.667-1.667-3.335-3.381-4.955-5.094-.463-.556-.973-1.111-1.436-1.621-.046,0-.046-.046-.046-.046-2.64-2.964-5.187-6.021-7.595-9.216-.37-.509-.787-1.019-1.158-1.574-6.298-8.522-11.67-17.784-15.977-27.648-1.343-3.149-2.593-6.345-3.751-9.586-2.177-6.16-3.983-12.55-5.326-19.08-1.899-9.355-2.871-19.034-2.871-28.945,0-8.892.787-17.599,2.362-26.027.139-.972.324-1.945.509-2.918,1.343-6.53,3.149-12.921,5.326-19.08v-.046c1.158-3.242,2.408-6.437,3.751-9.587h.046c4.307-9.817,9.633-19.08,15.931-27.648.371-.509.787-1.019,1.158-1.528,2.408-3.196,4.955-6.298,7.595-9.262h.046c.463-.556.973-1.112,1.436-1.621,1.621-1.76,3.288-3.473,4.955-5.095,3.056-3.01,6.206-5.835,9.54-8.567,6.947-5.743,14.495-10.837,22.507-15.19,19.219-10.466,41.124-16.719,64.373-17.413,1.528-.046,3.01-.093,4.538-.093,24.962,0,48.442,6.344,68.911,17.506,13.847,7.548,26.351,17.32,36.956,28.852.51.509,1.019,1.065,1.482,1.621h.046c2.64,2.964,5.187,6.066,7.595,9.262.371.509.741,1.019,1.158,1.528,6.252,8.568,11.624,17.83,15.931,27.648,1.389,3.149,2.64,6.345,3.798,9.587v.046c2.176,6.159,3.936,12.55,5.279,19.08,1.899,9.354,2.918,19.034,2.918,28.945Z"/><path class="cls-1" d="M563.933,670.808l.046.046.046-.046h-.092Z"/><path class="cls-4" d="M852.805,737.767c0,8.381-.762,16.762-2.37,25.059l-133.254,85.083-133.254-85.083c-1.609-8.212-2.286-16.593-2.286-25.059,0-8.381.762-16.593,2.286-24.89,0-.085,0-.254.085-.339l133.169-85.083,133.254,85.083c1.609,8.297,2.37,16.763,2.37,25.229Z"/><path class="cls-5" d="M790.863,737.717c0,3.365-.226,6.678-.664,9.922-.017.131-.034.263-.053.394-.56,3.999-1.442,7.894-2.618,11.659-.037.118-.074.236-.111.353-9.456,29.758-37.31,51.317-70.199,51.317-40.673,0-73.645-32.972-73.645-73.645,0-6.266.782-12.349,2.256-18.157.029-.12.06-.239.091-.358,1.008-3.892,2.326-7.659,3.927-11.273.054-.121.108-.242.162-.363,11.518-25.639,37.279-43.494,67.209-43.494,40.673,0,73.645,32.972,73.645,73.645Z"/><path class="cls-1" d="M790.199,747.639c-.017.131-.034.263-.053.394-.56,3.999-1.442,7.894-2.618,11.659-.037.118-.074.236-.111.353l-.114-.102c-30.846-27.685-70.682-42.931-112.169-42.931-9.787,0-19.596.848-29.158,2.522l-.149.026c.029-.12.06-.239.091-.358,1.008-3.892,2.326-7.659,3.927-11.273.054-.121.108-.242.162-.363,8.268-1.16,16.72-1.748,25.126-1.748,21.461,0,42.451,3.755,62.387,11.16,19.195,7.13,36.918,17.444,52.677,30.662Z"/><polygon class="cls-1" points="742.893 713.561 744.748 712.213 742.455 712.213 741.746 710.032 741.038 712.213 738.744 712.213 740.6 713.561 739.891 715.742 741.746 714.394 743.601 715.742 742.893 713.561"/><polygon class="cls-1" points="658.919 725.032 660.774 723.684 658.481 723.684 657.773 721.503 657.064 723.684 654.771 723.684 656.626 725.032 655.918 727.213 657.773 725.865 659.628 727.213 658.919 725.032"/><polygon class="cls-1" points="665.432 755.993 667.287 754.645 664.994 754.645 664.286 752.464 663.577 754.645 661.284 754.645 663.139 755.993 662.43 758.174 664.286 756.826 666.141 758.174 665.432 755.993"/><polygon class="cls-1" points="656.238 762.54 657.782 761.418 655.874 761.418 655.284 759.603 654.694 761.418 652.786 761.418 654.33 762.54 653.74 764.355 655.284 763.233 656.828 764.355 656.238 762.54"/><polygon class="cls-1" points="672.091 751.272 673.01 750.605 671.874 750.605 671.523 749.524 671.172 750.605 670.036 750.605 670.955 751.272 670.604 752.353 671.523 751.685 672.442 752.353 672.091 751.272"/><polygon class="cls-1" points="680.571 763.245 682.117 762.122 680.206 762.122 679.616 760.304 679.025 762.122 677.114 762.122 678.66 763.245 678.07 765.062 679.616 763.939 681.162 765.062 680.571 763.245"/><polygon class="cls-1" points="690.034 741.454 691.58 740.331 689.669 740.331 689.078 738.513 688.488 740.331 686.577 740.331 688.123 741.454 687.532 743.272 689.078 742.148 690.624 743.272 690.034 741.454"/><polygon class="cls-1" points="718.089 750.271 719.635 749.148 717.724 749.148 717.134 747.331 716.543 749.148 714.632 749.148 716.178 750.271 715.588 752.089 717.134 750.966 718.68 752.089 718.089 750.271"/><polygon class="cls-1" points="726.606 756.885 728.152 755.761 726.241 755.761 725.65 753.944 725.06 755.761 723.149 755.761 724.695 756.885 724.105 758.702 725.65 757.579 727.196 758.702 726.606 756.885"/><polygon class="cls-1" points="718.281 771.578 720.137 770.229 717.843 770.229 717.134 768.047 716.425 770.229 714.13 770.229 715.986 771.578 715.277 773.76 717.134 772.411 718.99 773.76 718.281 771.578"/><polygon class="cls-1" points="710.508 756.775 711.72 755.895 710.222 755.895 709.759 754.47 709.297 755.895 707.799 755.895 709.01 756.775 708.548 758.2 709.759 757.319 710.971 758.2 710.508 756.775"/><polygon class="cls-1" points="713.972 761.862 714.856 761.22 713.764 761.22 713.426 760.181 713.089 761.22 711.997 761.22 712.88 761.862 712.543 762.9 713.426 762.258 714.31 762.9 713.972 761.862"/><polygon class="cls-1" points="677.455 770.771 678.751 769.83 677.149 769.83 676.654 768.306 676.159 769.83 674.557 769.83 675.853 770.771 675.358 772.295 676.654 771.353 677.95 772.295 677.455 770.771"/><polygon class="cls-1" points="688.722 777.587 690.577 776.239 688.284 776.239 687.575 774.059 686.867 776.239 684.574 776.239 686.429 777.587 685.72 779.768 687.575 778.42 689.431 779.768 688.722 777.587"/><polygon class="cls-1" points="733.204 779.247 734.441 778.348 732.912 778.348 732.44 776.894 731.967 778.348 730.439 778.348 731.675 779.247 731.203 780.701 732.44 779.802 733.677 780.701 733.204 779.247"/><polygon class="cls-1" points="745.328 781.05 746.565 780.152 745.036 780.152 744.564 778.698 744.091 780.152 742.563 780.152 743.799 781.05 743.327 782.504 744.564 781.606 745.801 782.504 745.328 781.05"/><polygon class="cls-1" points="753.544 778.545 754.781 777.647 753.252 777.647 752.78 776.193 752.308 777.647 750.779 777.647 752.016 778.545 751.543 779.999 752.78 779.101 754.017 779.999 753.544 778.545"/><polygon class="cls-1" points="761.159 779.948 762.396 779.049 760.867 779.049 760.395 777.595 759.923 779.049 758.394 779.049 759.631 779.948 759.158 781.402 760.395 780.503 761.632 781.402 761.159 779.948"/><polygon class="cls-1" points="771.771 770.391 773.317 769.268 771.406 769.268 770.816 767.45 770.225 769.268 768.314 769.268 769.86 770.391 769.27 772.209 770.816 771.085 772.362 772.209 771.771 770.391"/><polygon class="cls-1" points="768.958 763.941 770.816 762.592 768.519 762.592 767.81 760.408 767.1 762.592 764.804 762.592 766.661 763.941 765.952 766.125 767.81 764.776 769.667 766.125 768.958 763.941"/><polygon class="cls-1" points="767.262 776.303 768.808 775.18 766.897 775.18 766.307 773.362 765.716 775.18 763.805 775.18 765.351 776.303 764.761 778.12 766.307 776.997 767.853 778.12 767.262 776.303"/><polygon class="cls-1" points="753.745 793.174 754.982 792.275 753.453 792.275 752.98 790.822 752.508 792.275 750.979 792.275 752.216 793.174 751.744 794.628 752.98 793.729 754.217 794.628 753.745 793.174"/><polygon class="cls-1" points="754.036 785.822 755.582 784.698 753.671 784.698 753.081 782.881 752.49 784.698 750.579 784.698 752.125 785.822 751.535 787.639 753.081 786.516 754.627 787.639 754.036 785.822"/><polygon class="cls-1" points="739.207 787.625 740.753 786.502 738.842 786.502 738.251 784.684 737.661 786.502 735.75 786.502 737.296 787.625 736.705 789.442 738.251 788.319 739.797 789.442 739.207 787.625"/><polygon class="cls-1" points="737.853 734.426 739.09 733.528 737.561 733.528 737.089 732.074 736.617 733.528 735.088 733.528 736.325 734.426 735.852 735.88 737.089 734.982 738.326 735.88 737.853 734.426"/><polygon class="cls-1" points="717.463 795.641 718.133 795.155 717.305 795.155 717.05 794.368 716.794 795.155 715.966 795.155 716.636 795.641 716.38 796.428 717.05 795.942 717.719 796.428 717.463 795.641"/><path class="cls-2" d="M459.033,205.626v274.538h-116.38l36.931,15.29c117.176,54.266,112.054,247.311-38.423,247.311h-177.554v-274.538h128.308c-1.695,0-28.734-6.748-35.115-9.572-9.771-4.325-22.951-9.553-32.597-16.706-101.605-70.412-77.161-236.323,63.245-236.323h171.586Z"/><path class="cls-2" d="M861.9,289.203v67.105c0,60.251-60.946,117.63-118.186,126.522-10.605,1.667-21.247,1.922-31.029,1.922v62.683c-30.241.694-60.066,8.66-86.556,23.063-10.513,5.743-20.516,12.457-29.732,20.099-4.353,3.52-8.568,7.317-12.55,11.254-2.223,2.176-4.4,4.446-6.53,6.715-.695.741-1.343,1.436-1.945,2.176h-.046c-3.473,3.937-6.854,8.012-10.049,12.18-.509.695-1.019,1.389-1.528,2.084-8.336,11.346-15.421,23.618-21.072,36.493v.046c-1.667,3.844-3.242,7.781-4.631,11.717-5.65-8.66-10.605-18.293-14.82-29.037-28.62-73.172-17.783-259.899-19.543-347.474-.648-30.334.695-60.806.093-91.14h208.91v83.647l4.492-.055h144.723Z"/></g></svg>